<?xml version="1.0" encoding="UTF-8"?><svg id="a" xmlns="http://www.w3.org/2000/svg" xmlns:xlink="http://www.w3.org/1999/xlink" viewBox="0 0 1002.55 538.21"><defs><style>.f{fill:url(#e);}.g{fill:url(#d);fill-rule:evenodd;}.h{fill:#4c4452;}</style><linearGradient id="d" x1="-60.43" y1="-278.9" x2="449.36" y2="-278.9" gradientTransform="translate(0 548)" gradientUnits="userSpaceOnUse"><stop offset="0" stop-color="#ae77db"/><stop offset="1" stop-color="#e16c4a"/></linearGradient><linearGradient id="e" x1="510.92" y1="-447.04" x2="596.72" y2="-447.04" gradientTransform="translate(0 548)" gradientUnits="userSpaceOnUse"><stop offset="0" stop-color="#ae77db"/><stop offset="1" stop-color="#e16c4a"/></linearGradient></defs><g id="b"><g id="c"><g><path class="g" d="M292.7,76.09c-52.11,16.2-94.48,37.72-127.12,64.57-28.16,22.81-48.93,51.23-62.31,85.25-4.06,10.31-7.44,21.14-10.14,32.48,8.33-6.99,17.29-13.05,26.87-18.17,6.97-3.73,14.26-6.96,21.89-9.69,18.11-6.5,36.92-9.75,56.43-9.75,30.65,0,57.35,6.73,80.11,20.2,22.75,13.47,39.94,31.12,51.55,52.94,12.07,21.83,18.11,44.58,18.11,68.27,0,27.86-6.5,53.64-19.51,77.32-13,23.68-32.04,42.73-57.12,57.12-24.61,13.93-53.64,20.9-87.08,20.9-49.23,0-88.93-16.25-119.12-48.76-29.72-32.97-44.58-79.88-44.58-140.71,0-78.02,24.61-143.27,73.84-195.75,49.69-52.94,117.73-88.93,204.1-107.97l13.93,45.98c-6.77,1.85-13.39,3.78-19.86,5.79v-.02ZM132.55,211.91c11.6-21.38,26.96-39.71,46.06-55.18l.06-.05,.06-.05c33.81-27.82,79.9-50.18,139.28-66.37l20.53-5.6L312.88,0l-18.7,4.12C204.63,23.86,132.56,61.55,79.44,118.14,26.3,174.79,0,245.25,0,328.05c0,64.04,15.66,116.58,49.9,154.57l.1,.11,.1,.11c34.55,37.21,80,55.37,134.28,55.37,36.36,0,69.02-7.59,97.27-23.58l.11-.06c28.13-16.15,50-37.86,64.96-65.11,14.73-26.83,22.06-56.05,22.06-87.28,0-27.32-6.99-53.45-20.62-78.14-13.52-25.35-33.46-45.65-59.2-60.88-26.42-15.64-56.89-23.09-90.65-23.09-21.86,0-43.03,3.65-63.42,10.97-.79,.28-1.57,.57-2.36,.86h.02Zm111.66,98.61l-.19-.21c-11.22-12.87-26.94-20.07-49.89-20.07-35.33,0-64.55,14.35-88.67,45.37,.35,40.27,8.68,67.91,22.16,85.72,14,17.89,32.22,26.76,56.75,26.76,27.54,0,45.88-8.18,58.24-22.16,13.43-15.66,20.69-35.7,20.69-61.65,0-23-6.68-40.27-18.91-53.55l-.19-.21h0Zm14.02,128.99c-17.18,19.5-41.8,29.26-73.84,29.26s-55.03-11.61-73.14-34.83c-17.65-23.22-26.47-56.89-26.47-101.01v-4.18c28.33-39.47,64.79-59.21,109.37-59.21,27.86,0,49.69,9.06,65.48,27.17,16.25,17.65,24.38,40.17,24.38,67.57,0,30.19-8.59,55.26-25.77,75.23h-.01Z"/><path class="h" d="M425.62,238.11h12.58v-69.73h79.21v-11.47h-79.21v-54.5h80.76v-11.47h-93.34V238.11h0Zm124.89-124.67c4.85,0,8.83-3.97,8.83-8.83s-3.97-8.83-8.83-8.83-8.83,3.97-8.83,8.83,4.19,8.83,8.83,8.83Zm-5.74,124.67h11.47v-106.57h-11.47v106.57h0Zm47.41,27.14c12.58,12.8,24.05,16.11,41.92,16.11,26.04,0,48.1-11.69,48.1-44.35v-105.47h-11.69v17.21c-8.61-12.14-21.84-19.86-37.07-19.86-28.24,0-47.66,22.07-47.66,55.82s19.42,55.6,47.66,55.6c15.89,0,29.57-9.05,37.07-19.86v16.77c0,24.49-16.99,34.2-36.41,34.2-15.89,0-26.04-3.97-35.3-15l-6.62,8.83h0Zm78.33-54.72c-6.18,10.37-20.3,19.42-35.08,19.42-23.61,0-37.29-19.42-37.29-45.23s13.68-45.45,37.29-45.45c14.78,0,28.91,9.05,35.08,19.42v51.85h0Zm119.22,27.57h11.47v-106.57h-11.47v81.2c-7.06,9.49-20.96,17.65-34.64,17.65-15.45,0-25.82-5.74-25.82-26.48v-72.37h-11.47v75.02c0,24.05,11.69,34.2,33.54,34.2,15.45,0,29.57-8.61,38.39-18.31v15.67h0Zm47.23,0h11.47v-77.67c4.85-9.27,19.42-18.98,30.23-18.98,2.21,0,3.75,0,5.74,.44v-12.58c-14.78,0-26.92,8.61-35.97,20.52v-18.31h-11.47v106.57h0Zm63.85-53.39c0,32.88,22.29,56.05,53.4,56.05,17.65,0,31.11-6.18,41.71-17.21l-5.96-7.5c-9.05,9.71-21.4,14.78-34.86,14.78-25.15,0-40.6-19.2-41.7-42.37h89.15v-3.09c0-30.67-17.88-56.49-50.31-56.49-29.57,0-51.41,24.93-51.41,55.82h-.02Zm51.19-45.88c26.7,0,38.62,22.51,38.83,40.6h-77.45c.88-18.53,13.46-40.6,38.61-40.6h.01ZM425.62,455.35h83.85v-11.47h-71.27v-135.7h-12.58v147.17h0Zm174.82,0h11.47v-75.02c0-23.83-17.21-34.2-38.83-34.2-17.65,0-30.01,5.96-41.04,17.87l6.4,7.94c9.71-11.03,20.08-15.67,33.32-15.67,15.89,0,28.68,8.61,28.68,24.49v21.62c-9.27-10.37-21.4-15.23-36.19-15.23-18.53,0-37.29,12.14-37.29,35.3s18.98,35.53,37.29,35.53c14.78,0,26.7-4.85,36.19-15.23v12.6Zm0-20.96c-7.5,9.71-19.42,14.56-32.21,14.56-17.65,0-29.13-11.25-29.13-26.26s11.47-26.48,29.13-26.48c12.8,0,24.71,5.07,32.21,14.78v23.39h0Zm47.33,20.97h11.47v-16.99c7.5,11.03,21.18,19.64,37.07,19.64,28.24,0,47.66-21.62,47.66-55.82s-19.2-56.05-47.66-56.05c-15,0-28.46,7.72-37.07,19.86v-57.81h-11.47v147.17h0Zm11.47-26.7v-52.74c6.18-10.15,20.3-19.42,35.08-19.42,23.83,0,37.29,19.86,37.29,45.67s-13.46,45.45-37.29,45.45c-14.78,0-28.9-8.83-35.08-18.98v.02Zm105.31,12.58c10.59,11.69,23.83,16.77,41.04,16.77,26.7,0,39.94-14.12,39.94-31.33,0-22.73-20.52-27.8-38.83-32.44-14.78-3.75-28.46-7.06-28.46-19.2,0-11.03,10.15-19.2,26.7-19.2,14.12,0,25.6,5.74,31.77,14.12l6.4-8.16c-7.72-8.61-19.86-15.67-38.17-15.67-24.05,0-37.95,13.24-37.95,29.57,0,20.74,19.64,25.37,37.51,29.79,15.22,3.97,29.79,7.94,29.79,21.62,0,12.36-10.59,21.18-28.46,21.18-15,0-27.58-7.06-34.42-15.67l-6.84,8.61h-.02Z"/><path class="f" d="M536.56,100.96c0,8.39,7.06,15.45,15.45,15.45s15.45-7.06,15.45-15.45-7.06-15.45-15.45-15.45-15.45,7.06-15.45,15.45Z"/></g></g></g></svg>