<?xml version="1.0" encoding="utf-8"?>
<!-- Generator: Adobe Illustrator 26.2.1, SVG Export Plug-In . SVG Version: 6.00 Build 0)  -->
<svg version="1.1" id="a" xmlns="http://www.w3.org/2000/svg" xmlns:xlink="http://www.w3.org/1999/xlink" x="0px" y="0px"
	 viewBox="0 0 1002.5 538.2" style="enable-background:new 0 0 1002.5 538.2;" xml:space="preserve">
<style type="text/css">
	.st0{fill-rule:evenodd;clip-rule:evenodd;fill:url(#SVGID_1_);}
	.st1{fill:#FFFFFF;}
	.st2{fill:url(#SVGID_00000145055991978487394210000004023711648667345301_);}
</style>
<g id="b">
	<g id="c">
		<g>
			
				<linearGradient id="SVGID_1_" gradientUnits="userSpaceOnUse" x1="-60.43" y1="818.895" x2="449.36" y2="818.895" gradientTransform="matrix(1 0 0 -1 0 1088)">
				<stop  offset="0" style="stop-color:#AE77DB"/>
				<stop  offset="1" style="stop-color:#E16C4A"/>
			</linearGradient>
			<path class="st0" d="M292.7,76.1c-52.1,16.2-94.5,37.7-127.1,64.6c-28.2,22.8-48.9,51.2-62.3,85.2c-4.1,10.3-7.4,21.1-10.1,32.5
				c8.3-7,17.3-13.1,26.9-18.2c7-3.7,14.3-7,21.9-9.7c18.1-6.5,36.9-9.8,56.4-9.8c30.6,0,57.4,6.7,80.1,20.2
				c22.8,13.5,39.9,31.1,51.5,52.9c12.1,21.8,18.1,44.6,18.1,68.3c0,27.9-6.5,53.6-19.5,77.3c-13,23.7-32,42.7-57.1,57.1
				c-24.6,13.9-53.6,20.9-87.1,20.9c-49.2,0-88.9-16.2-119.1-48.8c-29.7-33-44.6-79.9-44.6-140.7c0-78,24.6-143.3,73.8-195.8
				c49.7-52.9,117.7-88.9,204.1-108l13.9,46C305.8,72.2,299.2,74.1,292.7,76.1L292.7,76.1L292.7,76.1z M132.6,211.9
				c11.6-21.4,27-39.7,46.1-55.2l0.1-0.1l0.1-0.1c33.8-27.8,79.9-50.2,139.3-66.4l20.5-5.6L312.9,0l-18.7,4.1
				c-89.5,19.7-161.6,57.4-214.7,114C26.3,174.8,0,245.2,0,328c0,64,15.7,116.6,49.9,154.6l0.1,0.1l0.1,0.1
				c34.5,37.2,80,55.4,134.3,55.4c36.4,0,69-7.6,97.3-23.6l0.1-0.1c28.1-16.1,50-37.9,65-65.1c14.7-26.8,22.1-56,22.1-87.3
				c0-27.3-7-53.5-20.6-78.1c-13.5-25.4-33.5-45.6-59.2-60.9c-26.4-15.6-56.9-23.1-90.6-23.1c-21.9,0-43,3.6-63.4,11
				C134.1,211.3,133.3,211.6,132.6,211.9L132.6,211.9L132.6,211.9z M244.2,310.5l-0.2-0.2c-11.2-12.9-26.9-20.1-49.9-20.1
				c-35.3,0-64.6,14.4-88.7,45.4c0.3,40.3,8.7,67.9,22.2,85.7c14,17.9,32.2,26.8,56.8,26.8c27.5,0,45.9-8.2,58.2-22.2
				c13.4-15.7,20.7-35.7,20.7-61.6c0-23-6.7-40.3-18.9-53.5L244.2,310.5L244.2,310.5L244.2,310.5z M258.2,439.5
				c-17.2,19.5-41.8,29.3-73.8,29.3s-55-11.6-73.1-34.8c-17.7-23.2-26.5-56.9-26.5-101v-4.2c28.3-39.5,64.8-59.2,109.4-59.2
				c27.9,0,49.7,9.1,65.5,27.2c16.2,17.6,24.4,40.2,24.4,67.6C284,394.5,275.4,419.5,258.2,439.5L258.2,439.5L258.2,439.5z"/>
			<path class="st1" d="M425.6,238.1h12.6v-69.7h79.2v-11.5h-79.2v-54.5H519V90.9h-93.3L425.6,238.1L425.6,238.1L425.6,238.1z
				 M550.5,113.4c4.8,0,8.8-4,8.8-8.8s-4-8.8-8.8-8.8s-8.8,4-8.8,8.8S545.9,113.4,550.5,113.4z M544.8,238.1h11.5V131.5h-11.5V238.1
				L544.8,238.1L544.8,238.1z M592.2,265.2c12.6,12.8,24,16.1,41.9,16.1c26,0,48.1-11.7,48.1-44.4V131.5h-11.7v17.2
				c-8.6-12.1-21.8-19.9-37.1-19.9c-28.2,0-47.7,22.1-47.7,55.8s19.4,55.6,47.7,55.6c15.9,0,29.6-9.1,37.1-19.9v16.8
				c0,24.5-17,34.2-36.4,34.2c-15.9,0-26-4-35.3-15L592.2,265.2L592.2,265.2L592.2,265.2z M670.5,210.5
				c-6.2,10.4-20.3,19.4-35.1,19.4c-23.6,0-37.3-19.4-37.3-45.2s13.7-45.4,37.3-45.4c14.8,0,28.9,9.1,35.1,19.4V210.5L670.5,210.5
				L670.5,210.5z M789.7,238.1h11.5V131.5h-11.5v81.2c-7.1,9.5-21,17.6-34.6,17.6c-15.5,0-25.8-5.7-25.8-26.5v-72.4h-11.5v75
				c0,24.1,11.7,34.2,33.5,34.2c15.5,0,29.6-8.6,38.4-18.3V238.1L789.7,238.1L789.7,238.1z M837,238.1h11.5v-77.7
				c4.8-9.3,19.4-19,30.2-19c2.2,0,3.8,0,5.7,0.4v-12.6c-14.8,0-26.9,8.6-36,20.5v-18.3H837V238.1L837,238.1L837,238.1z
				 M900.8,184.7c0,32.9,22.3,56.1,53.4,56.1c17.7,0,31.1-6.2,41.7-17.2l-6-7.5c-9,9.7-21.4,14.8-34.9,14.8
				c-25.2,0-40.6-19.2-41.7-42.4h89.2v-3.1c0-30.7-17.9-56.5-50.3-56.5C922.7,128.9,900.8,153.8,900.8,184.7L900.8,184.7
				L900.8,184.7z M952,138.8c26.7,0,38.6,22.5,38.8,40.6h-77.5C914.3,160.9,926.8,138.8,952,138.8L952,138.8L952,138.8z
				 M425.6,455.4h83.9v-11.5h-71.3V308.2h-12.6L425.6,455.4L425.6,455.4L425.6,455.4z M600.4,455.4h11.5v-75
				c0-23.8-17.2-34.2-38.8-34.2c-17.7,0-30,6-41,17.9l6.4,7.9c9.7-11,20.1-15.7,33.3-15.7c15.9,0,28.7,8.6,28.7,24.5v21.6
				c-9.3-10.4-21.4-15.2-36.2-15.2c-18.5,0-37.3,12.1-37.3,35.3s19,35.5,37.3,35.5c14.8,0,26.7-4.9,36.2-15.2V455.4L600.4,455.4z
				 M600.4,434.4c-7.5,9.7-19.4,14.6-32.2,14.6c-17.7,0-29.1-11.2-29.1-26.3s11.5-26.5,29.1-26.5c12.8,0,24.7,5.1,32.2,14.8V434.4
				L600.4,434.4L600.4,434.4z M647.8,455.4h11.5v-17c7.5,11,21.2,19.6,37.1,19.6c28.2,0,47.7-21.6,47.7-55.8s-19.2-56-47.7-56
				c-15,0-28.5,7.7-37.1,19.9v-57.8h-11.5V455.4L647.8,455.4L647.8,455.4z M659.2,428.7v-52.7c6.2-10.1,20.3-19.4,35.1-19.4
				c23.8,0,37.3,19.9,37.3,45.7s-13.5,45.5-37.3,45.5C679.5,447.6,665.4,438.8,659.2,428.7L659.2,428.7L659.2,428.7z M764.5,441.2
				c10.6,11.7,23.8,16.8,41,16.8c26.7,0,39.9-14.1,39.9-31.3c0-22.7-20.5-27.8-38.8-32.4c-14.8-3.8-28.5-7.1-28.5-19.2
				c0-11,10.2-19.2,26.7-19.2c14.1,0,25.6,5.7,31.8,14.1l6.4-8.2c-7.7-8.6-19.9-15.7-38.2-15.7c-24,0-38,13.2-38,29.6
				c0,20.7,19.6,25.4,37.5,29.8c15.2,4,29.8,7.9,29.8,21.6c0,12.4-10.6,21.2-28.5,21.2c-15,0-27.6-7.1-34.4-15.7L764.5,441.2
				L764.5,441.2L764.5,441.2z"/>
			
				<linearGradient id="SVGID_00000023245556688503508570000000802732468341517488_" gradientUnits="userSpaceOnUse" x1="510.92" y1="987.04" x2="596.72" y2="987.04" gradientTransform="matrix(1 0 0 -1 0 1088)">
				<stop  offset="0" style="stop-color:#AE77DB"/>
				<stop  offset="1" style="stop-color:#E16C4A"/>
			</linearGradient>
			<path style="fill:url(#SVGID_00000023245556688503508570000000802732468341517488_);" d="M536.6,101c0,8.4,7.1,15.4,15.5,15.4
				s15.5-7.1,15.5-15.4s-7.1-15.4-15.5-15.4S536.6,92.6,536.6,101z"/>
		</g>
	</g>
</g>
</svg>
